<svg width="18" height="16" viewBox="0 0 18 16" fill="none" xmlns="http://www.w3.org/2000/svg">
<path d="M9 15C9 15 1 10.5455 1 5.13637C1 4.18014 1.3332 3.25345 1.9429 2.51396C2.5526 1.77447 3.40114 1.26786 4.34416 1.08033C5.28717 0.8928 6.26641 1.03593 7.11525 1.48537C7.9641 1.93481 8.63012 2.66279 9 3.54546C9.36988 2.66279 10.0359 1.93481 10.8847 1.48537C11.7336 1.03593 12.7128 0.8928 13.6558 1.08033C14.5989 1.26786 15.4474 1.77447 16.0571 2.51396C16.6668 3.25345 17 4.18014 17 5.13637C17 10.5455 9 15 9 15Z" stroke="white" stroke-width="2" stroke-linecap="round" stroke-linejoin="round"/>
</svg>
