<?xml version="1.0"?>
<svg width="26" height="23" xmlns="http://www.w3.org/2000/svg" xmlns:svg="http://www.w3.org/2000/svg">
 <g class="layer">
  <title>Layer 1</title>
  <path d="m13,21c0,0 -11,-6.05 -11,-13.39c0,-1.29 0.46,-2.55 1.3,-3.56c0.83,-1 2,-1.69 3.3,-1.94c1.29,-0.26 2.64,-0.06 3.81,0.55c1.17,0.61 2.08,1.6 2.59,2.79c0.51,-1.19 1.42,-2.18 2.59,-2.79c1.17,-0.61 2.52,-0.81 3.81,-0.55c1.3,0.25 2.47,0.94 3.3,1.94c0.84,1.01 1.3,2.27 1.3,3.56c0,7.34 -11,13.39 -11,13.39z" fill="#d80000" stroke="#d80000" stroke-linecap="round" stroke-linejoin="round" stroke-width="4"/>
 </g>
</svg>