<svg width="26" height="23" viewBox="0 0 26 23" fill="none" xmlns="http://www.w3.org/2000/svg">
<path d="M13 21C13 21 2 14.9545 2 7.61364C2 6.31591 2.45814 5.05826 3.29648 4.05466C4.13482 3.05107 5.30157 2.36353 6.59822 2.10902C7.89486 1.85451 9.24131 2.04876 10.4085 2.65871C11.5756 3.26867 12.4914 4.25664 13 5.45455C13.5086 4.25664 14.4244 3.26867 15.5915 2.65871C16.7587 2.04876 18.1051 1.85451 19.4018 2.10902C20.6984 2.36353 21.8652 3.05107 22.7035 4.05466C23.5419 5.05826 24 6.31591 24 7.61364C24 14.9545 13 21 13 21Z" stroke="white" stroke-width="4" stroke-linecap="round" stroke-linejoin="round"/>
</svg>
