<svg width="245" height="30" viewBox="0 0 245 30" fill="none" xmlns="http://www.w3.org/2000/svg">
<path id="first" d="M19.05 6.5L12.025 19.675C11.1917 21.2417 10.1667 22.4333 8.95 23.25C7.75 24.0667 6.425 24.475 4.975 24.475C3.85833 24.475 2.725 24.2417 1.575 23.775L2.95 19.525C3.68333 19.725 4.28333 19.825 4.75 19.825C5.18333 19.825 5.55 19.75 5.85 19.6C6.16667 19.45 6.46667 19.2 6.75 18.85L0.05 6.5H6.275L9.75 13.875L13.35 6.5H19.05ZM28.807 24.4C26.957 24.4 25.2904 24.0167 23.807 23.25C22.3237 22.4667 21.157 21.3833 20.307 20C19.4737 18.6 19.057 17.0167 19.057 15.25C19.057 13.4833 19.4737 11.9083 20.307 10.525C21.157 9.125 22.3237 8.04167 23.807 7.275C25.2904 6.49167 26.957 6.1 28.807 6.1C30.507 6.1 32.0237 6.4 33.357 7C34.6904 7.6 35.7904 8.46667 36.657 9.6L32.932 12.925C31.8487 11.5583 30.5737 10.875 29.107 10.875C27.8737 10.875 26.882 11.275 26.132 12.075C25.382 12.8583 25.007 13.9167 25.007 15.25C25.007 16.5833 25.382 17.65 26.132 18.45C26.882 19.2333 27.8737 19.625 29.107 19.625C30.5737 19.625 31.8487 18.9417 32.932 17.575L36.657 20.9C35.7904 22.0333 34.6904 22.9 33.357 23.5C32.0237 24.1 30.507 24.4 28.807 24.4ZM55.124 6.5V24H49.324V11.075H45.324L45.274 13.1C45.2074 15.6 45.0074 17.65 44.674 19.25C44.3407 20.85 43.7574 22.1 42.924 23C42.0907 23.8833 40.899 24.325 39.349 24.325C38.5657 24.325 37.7324 24.2167 36.849 24L37.149 19.275C37.3657 19.325 37.5824 19.35 37.799 19.35C38.4157 19.35 38.8824 19.1 39.199 18.6C39.5324 18.1 39.7574 17.4333 39.874 16.6C39.9907 15.7667 40.074 14.675 40.124 13.325L40.349 6.5H55.124ZM75.715 6.5L68.69 19.675C67.8567 21.2417 66.8317 22.4333 65.615 23.25C64.415 24.0667 63.09 24.475 61.64 24.475C60.5234 24.475 59.39 24.2417 58.24 23.775L59.615 19.525C60.3484 19.725 60.9484 19.825 61.415 19.825C61.8484 19.825 62.215 19.75 62.515 19.6C62.8317 19.45 63.1317 19.2 63.415 18.85L56.715 6.5H62.94L66.415 13.875L70.015 6.5H75.715ZM90.2656 11.075H82.7406V24H76.9406V6.5H90.2656V11.075ZM92.2238 6.5H98.0238V15.6L104.049 6.5H109.599V24H103.799V14.925L97.7988 24H92.2238V6.5ZM131.861 24.4C129.978 24.4 128.286 24.0083 126.786 23.225C125.286 22.4417 124.111 21.3583 123.261 19.975C122.411 18.575 121.986 17 121.986 15.25C121.986 13.5 122.411 11.9333 123.261 10.55C124.111 9.15 125.286 8.05833 126.786 7.275C128.286 6.49167 129.978 6.1 131.861 6.1C133.744 6.1 135.436 6.49167 136.936 7.275C138.436 8.05833 139.611 9.15 140.461 10.55C141.311 11.9333 141.736 13.5 141.736 15.25C141.736 17 141.311 18.575 140.461 19.975C139.611 21.3583 138.436 22.4417 136.936 23.225C135.436 24.0083 133.744 24.4 131.861 24.4ZM131.861 19.625C132.594 19.625 133.253 19.45 133.836 19.1C134.436 18.7333 134.911 18.225 135.261 17.575C135.611 16.9083 135.786 16.1333 135.786 15.25C135.786 14.3667 135.611 13.6 135.261 12.95C134.911 12.2833 134.436 11.775 133.836 11.425C133.253 11.0583 132.594 10.875 131.861 10.875C131.128 10.875 130.461 11.0583 129.861 11.425C129.278 11.775 128.811 12.2833 128.461 12.95C128.111 13.6 127.936 14.3667 127.936 15.25C127.936 16.1333 128.111 16.9083 128.461 17.575C128.811 18.225 129.278 18.7333 129.861 19.1C130.461 19.45 131.128 19.625 131.861 19.625ZM161.11 6.5V24H155.21V17.55H149.76V24H143.86V6.5H149.76V12.7H155.21V6.5H161.11ZM181.296 6.5V24H175.496V11.075H171.496L171.446 13.1C171.379 15.6 171.179 17.65 170.846 19.25C170.513 20.85 169.929 22.1 169.096 23C168.263 23.8833 167.071 24.325 165.521 24.325C164.738 24.325 163.904 24.2167 163.021 24L163.321 19.275C163.538 19.325 163.754 19.35 163.971 19.35C164.588 19.35 165.054 19.1 165.371 18.6C165.704 18.1 165.929 17.4333 166.046 16.6C166.163 15.7667 166.246 14.675 166.296 13.325L166.521 6.5H181.296ZM196.737 20.95H190.087L188.912 24H182.912L190.562 6.5H196.362L204.012 24H197.912L196.737 20.95ZM195.112 16.7L193.412 12.3L191.712 16.7H195.112ZM205.627 6.5H211.427V15.6L217.452 6.5H223.002V24H217.202V14.925L211.202 24H205.627V6.5ZM214.302 5.5C212.369 5.5 210.977 5.14167 210.127 4.425C209.277 3.70833 208.852 2.63333 208.852 1.2H212.777C212.777 1.76667 212.885 2.175 213.102 2.425C213.335 2.675 213.735 2.8 214.302 2.8C214.869 2.8 215.269 2.675 215.502 2.425C215.752 2.175 215.877 1.76667 215.877 1.2H219.802C219.802 2.63333 219.369 3.70833 218.502 4.425C217.635 5.14167 216.235 5.5 214.302 5.5ZM243.361 6.5V24H237.461V17.55H232.011V24H226.111V6.5H232.011V12.7H237.461V6.5H243.361Z" fill="#1BB6E6"/>
<path id="second" d="M116.257 21.025C115.507 21.025 114.816 20.85 114.182 20.5C113.549 20.1333 113.049 19.6333 112.682 19C112.332 18.3667 112.157 17.6583 112.157 16.875C112.157 16.0917 112.332 15.3917 112.682 14.775C113.049 14.1417 113.541 13.65 114.157 13.3C114.791 12.95 115.491 12.775 116.257 12.775C117.024 12.775 117.724 12.95 118.357 13.3C118.991 13.65 119.491 14.1417 119.857 14.775C120.224 15.3917 120.407 16.0917 120.407 16.875C120.407 17.6583 120.224 18.3667 119.857 19C119.491 19.6333 118.991 20.1333 118.357 20.5C117.724 20.85 117.024 21.025 116.257 21.025Z" fill="#FF5C16"/>
</svg>
