<svg width="34" height="41" viewBox="0 0 34 41" fill="none" xmlns="http://www.w3.org/2000/svg">
<path d="M25 24V34.2632L27 36.6316V39" stroke="white" stroke-width="2" stroke-miterlimit="10"/>
<path d="M9 24V34.2632L7 36.6316V39" stroke="white" stroke-width="2" stroke-miterlimit="10"/>
<path d="M21 24V34H13V24" stroke="white" stroke-width="2" stroke-miterlimit="10"/>
<path d="M17 23C21.6126 23 31 25.2248 31 29.8571V39" stroke="white" stroke-width="2" stroke-miterlimit="10"/>
<path d="M17 23C12.3874 23 3 25.2248 3 29.8571V39" stroke="white" stroke-width="2" stroke-miterlimit="10"/>
<path d="M10 12V12.8182C10 16.4345 13.5467 21 17 21C20.4533 21 24 16.4345 24 12.8182V12" stroke="white" stroke-width="2" stroke-miterlimit="10"/>
<path d="M24 10.2727V8.81818C24 5.60364 22.8022 3 17 3C11.1978 3 10 5.60364 10 8.81818V11" stroke="white" stroke-width="2" stroke-miterlimit="10"/>
<path d="M9 11H28" stroke="white" stroke-width="2" stroke-miterlimit="10"/>
</svg>
